# xmcd
#
# Track frame offsets: 
#        150
#        12244
#        28263
#        42030
#        56206
#        72577
#        86680
#        106918
#        125743
#        142529
#        156085
#        168457
#        185086
#        200009
#
# Disc length: 2838 seconds
#
# Revision: 0
# Processed by: cddbd v1.5.1PL0 Copyright (c) Steve Scherf et al.
# Submitted via: ExactAudioCopy v0.95a5
#
DISCID=c70b140e
DTITLE=Gleydson Rodrigues - O Fenômeno Do Rodeio (Tony Sorriso)
DYEAR=2002
DGENRE=Country
TTITLE0=Da Da Da - Gleydson Rodrigues and Skala Musical
TTITLE1=Tarde Demais - Zezé Di Camargo and Luciano
TTITLE2=Bate O Pé - Rionegro and Solimões
TTITLE3=Rodopiou - Emilio and Eduardo
TTITLE4=Tô Por Ai - Di Paulo and Paulino
TTITLE5=Coração Redomão - Divino and Donizete
TTITLE6=Laço Aberto - Ely Carvalho (A Loira Do Rodeio)
TTITLE7=Fim De Festa - Zezé Di Camargo and Luciano
TTITLE8=Casa Cheia - Rionegro and Solimões
TTITLE9=Bate Coração - Emilio and Eduardo
TTITLE10=As Andorinhas - Ely Carvalho (A Loira Do Rodeio)
TTITLE11=Boiadeiro Errante - Divino and Donizete
TTITLE12=Garanhão Da Madrugada - Ouro Preto and Boiadeiro
TTITLE13=O Pernilongo - Emanoel and Juliano
EXTD=
EXTT0=
EXTT1=
EXTT2=
EXTT3=
EXTT4=
EXTT5=
EXTT6=
EXTT7=
EXTT8=
EXTT9=
EXTT10=
EXTT11=
EXTT12=
EXTT13=
PLAYORDER=
